<svg width="231" height="114" viewBox="0 0 231 114" fill="none" xmlns="http://www.w3.org/2000/svg">
<line x1="59.1125" y1="12.1923" x2="0.367962" y2="12.1923" stroke="black" stroke-width="3"/>
<line x1="59.1125" y1="104.808" x2="0.367962" y2="104.808" stroke="black" stroke-width="3"/>
<line x1="230.368" y1="56.99" x2="177.597" y2="56.99" stroke="black" stroke-width="3"/>
<path d="M59.1126 1.63211V112.368L126.818 112.368C194.524 112.368 194.524 1.63211 126.818 1.63211L59.1126 1.63211Z" fill="white"/>
<path d="M59.1126 1.63211V112.368M59.1126 1.63211C59.1126 1.63211 59.1126 1.63211 126.818 1.63211M59.1126 1.63211L126.818 1.63211M59.1126 112.368C59.1126 112.368 59.1126 112.368 126.818 112.368M59.1126 112.368L126.818 112.368M126.818 112.368C194.524 112.368 194.524 1.63211 126.818 1.63211" stroke="black" stroke-width="3"/>
</svg>
