<svg width="231" height="114" viewBox="0 0 231 114" fill="none" xmlns="http://www.w3.org/2000/svg">
<path d="M159.721 66.5736C155.006 66.5736 151.178 62.7413 151.178 58.0067C151.178 53.2721 155.006 49.4398 159.721 49.4398C164.436 49.4398 168.265 53.2721 168.265 58.0067C168.265 62.7413 164.436 66.5736 159.721 66.5736Z" fill="white" stroke="black" stroke-width="3"/>
<line x1="55.2671" y1="103.801" x2="0.0269163" y2="103.801" stroke="black" stroke-width="3"/>
<line x1="55.2671" y1="11.1856" x2="0.0269163" y2="11.1856" stroke="black" stroke-width="3"/>
<path d="M149.677 58.2268C125.221 6.18871 101.484 -1.29191 51.2495 2.4539C71.7236 40.8377 73.8344 64.0398 51.2495 110.153C93.2955 116.999 116.483 110.159 149.677 58.2268Z" fill="white" stroke="black" stroke-width="3"/>
<line y1="-1.5" x2="60.262" y2="-1.5" transform="matrix(-0.999949 -0.0100891 0.0119678 -0.999928 230.027 57.5034)" stroke="black" stroke-width="3"/>
</svg>
