<svg width="230" height="105" viewBox="0 0 230 105" fill="none" xmlns="http://www.w3.org/2000/svg">
<path d="M166.35 61.0693C161.227 61.0693 157.419 57.4652 157.419 53.4176C157.419 49.37 161.227 45.7659 166.35 45.7659C171.473 45.7659 175.281 49.37 175.281 53.4176C175.281 57.4652 171.473 61.0693 166.35 61.0693Z" fill="white" stroke="black" stroke-width="3"/>
<path d="M155.919 53.6178C130.988 6.31037 106.791 -0.4902 55.5829 2.91508C76.4538 37.8095 78.6056 58.9022 55.5829 100.824C98.4438 107.047 122.081 100.829 155.919 53.6178Z" fill="white" stroke="black" stroke-width="3"/>
<line y1="-1.5" x2="60.126" y2="-1.5" transform="matrix(-0.99995 -0.0100353 0.0120319 -0.999928 60.55 11.0079)" stroke="black" stroke-width="3"/>
<line y1="-1.5" x2="53.1096" y2="-1.5" transform="matrix(-0.999873 0.0159104 -0.0223699 -0.99975 229.432 51.1297)" stroke="black" stroke-width="3"/>
<line y1="-1.5" x2="60.126" y2="-1.5" transform="matrix(-0.99995 -0.0100353 0.0120319 -0.999928 60.55 91.543)" stroke="black" stroke-width="3"/>
<path d="M37.7015 102.837C59.0785 61.1514 60.3952 38.9639 37.7015 2.168L48.0122 2.168C70.4637 34.0085 69.5876 56.3419 48.0122 102.837H37.7015Z" fill="white" stroke="black" stroke-width="3"/>
</svg>
