<svg width="230" height="115" viewBox="0 0 230 115" fill="none" xmlns="http://www.w3.org/2000/svg">
<path d="M176.233 58.5947C151.494 6.5566 127.482 -0.924021 76.6663 2.82178C97.3773 41.2056 99.5126 64.4076 76.6663 110.521C119.199 117.367 142.655 110.527 176.233 58.5947Z" fill="white" stroke="black" stroke-width="3"/>
<line y1="-1.5" x2="79.6537" y2="-1.5" transform="matrix(-0.999938 -0.01111 0.0108681 -0.999941 80.6489 9.90715)" stroke="black" stroke-width="3"/>
<line y1="-1.5" x2="52.7707" y2="-1.5" transform="matrix(-0.999844 0.0176537 -0.0201611 -0.999797 229.004 55.8579)" stroke="black" stroke-width="3"/>
<line y1="-1.5" x2="79.6537" y2="-1.5" transform="matrix(-0.999938 -0.01111 0.0108681 -0.999941 80.6489 103.529)" stroke="black" stroke-width="3"/>
<path d="M58.7441 112.736C79.376 66.8818 80.6468 42.4755 58.7441 1.99999L68.6954 1.99999C90.3643 37.0246 89.5188 61.5913 68.6954 112.736L58.7441 112.736Z" fill="white" stroke="black" stroke-width="3"/>
</svg>
